<?xml version="1.0" encoding="UTF-8"?>
<svg id="Layer_1" data-name="Layer 1" xmlns="http://www.w3.org/2000/svg" viewBox="0 0 100 100">
  <path d="M100,50.3c0-27.78-22.39-50.3-50-50.3S0,22.52,0,50.31c0,25.01,18.14,45.76,41.9,49.65l.29.04v-35.15h-12.7v-14.55h12.7v-11.08c-.06-.56-.1-1.21-.1-1.87,0-9.81,7.9-17.76,17.65-17.76.47,0,.94.02,1.4.05h-.06c4,.05,7.87.41,11.64,1.04l-.45-.06v12.38h-6.31c-.29-.04-.62-.06-.95-.06-3.99,0-7.23,3.25-7.23,7.27,0,.23.01.45.03.68v-.03s0,9.43,0,9.43h13.87l-2.22,14.55h-11.65v35.15c24.05-3.94,42.19-24.69,42.19-49.7h0Z" style="fill: #f6cfc5; opacity: .97; stroke-width: 0px;"/>
</svg>