<?xml version="1.0" encoding="UTF-8"?>
<svg id="Layer_1" data-name="Layer 1" xmlns="http://www.w3.org/2000/svg" viewBox="0 0 100 100">
  <path d="M50,58.79c4.84,0,8.81-3.95,8.81-8.81,0-1.91-.62-3.69-1.66-5.14-1.6-2.21-4.2-3.67-7.13-3.67s-5.53,1.45-7.13,3.67c-1.04,1.45-1.66,3.22-1.66,5.14-.02,4.86,3.93,8.81,8.77,8.81Z" style="fill: #191514; stroke-width: 0px;"/>
  <polygon points="69.22 39.24 69.22 31.86 69.22 30.76 68.13 30.76 60.74 30.78 60.78 39.26 69.22 39.24" style="fill: #191514; stroke-width: 0px;"/>
  <path d="M63.67,50c0,7.54-6.13,13.67-13.67,13.67s-13.67-6.13-13.67-13.67c0-1.82.37-3.55,1.02-5.14h-7.46v20.47c0,2.64,2.15,4.79,4.79,4.79h30.66c2.64,0,4.79-2.15,4.79-4.79v-20.47h-7.46c.66,1.58,1.02,3.32,1.02,5.14Z" style="fill: #191514; stroke-width: 0px;"/>
  <path d="M50,0C22.38,0,0,22.38,0,50s22.38,50,50,50,50-22.38,50-50S77.62,0,50,0ZM75,44.86v20.47c0,5.33-4.34,9.67-9.67,9.67h-30.66c-5.33,0-9.67-4.34-9.67-9.67v-30.68c0-5.33,4.34-9.67,9.67-9.67h30.66c5.33,0,9.67,4.34,9.67,9.67v10.21Z" style="fill: #191514; stroke-width: 0px;"/>
</svg>