<?xml version="1.0" encoding="UTF-8"?>
<svg id="Layer_1" data-name="Layer 1" xmlns="http://www.w3.org/2000/svg" viewBox="0 0 100 100">
  <path d="M50,0C22.39,0,0,22.39,0,50s22.39,50,50,50,50-22.39,50-50S77.61,0,50,0ZM83.48,43.55c-4.91-.12-9.53-1.26-13.7-3.2l.21.09c-1.96-.94-3.62-1.91-5.2-2.98-.03,9.37.03,18.75-.06,28.09-.26,4.76-1.85,9.1-4.39,12.73l.05-.08c-4.24,6.08-11.12,10.07-18.94,10.31h-.04c-.32.02-.69.02-1.06.02-4.45,0-8.6-1.24-12.14-3.39l.1.06c-6.44-3.88-10.89-10.51-11.71-18.23v-.11c-.07-1.61-.11-3.21-.04-4.78,1.26-12.28,11.55-21.78,24.05-21.78,1.41,0,2.78.12,4.12.35l-.14-.02c.06,4.75-.13,9.5-.13,14.25-1.09-.39-2.34-.62-3.65-.62-4.8,0-8.88,3.07-10.39,7.35l-.02.08c-.34,1.1-.54,2.36-.54,3.66,0,.53.03,1.05.1,1.57v-.06c.85,5.26,5.35,9.22,10.79,9.22.16,0,.31,0,.47-.01h-.02c3.76-.11,7.02-2.14,8.87-5.12l.03-.05c.69-.96,1.16-2.11,1.31-3.37v-.04c.32-5.75.2-11.46.23-17.21.03-12.94-.03-25.85.06-38.75h.01c4.21-.06,8.38-.02,12.55-.06.14,5.22,2.25,9.91,5.62,13.39,3.63,3.26,8.34,5.38,13.54,5.74h.07v12.94Z" style="fill: #f6cfc5; stroke-width: 0px;"/>
</svg>